<?xml version="1.0" encoding="UTF-8" standalone="no"?>
<!-- Created with Inkscape (http://www.inkscape.org/) -->

<svg
   width="135.46667mm"
   height="135.46667mm"
   viewBox="0 0 135.46667 135.46668"
   version="1.1"
   id="svg1"
   inkscape:version="1.3 (0e150ed6c4, 2023-07-21)"
   xml:space="preserve"
   sodipodi:docname="logo.svg"
   inkscape:export-filename="logo.png"
   inkscape:export-xdpi="400"
   inkscape:export-ydpi="400"
   xmlns:inkscape="http://www.inkscape.org/namespaces/inkscape"
   xmlns:sodipodi="http://sodipodi.sourceforge.net/DTD/sodipodi-0.dtd"
   xmlns="http://www.w3.org/2000/svg"
   xmlns:svg="http://www.w3.org/2000/svg"
   xmlns:rdf="http://www.w3.org/1999/02/22-rdf-syntax-ns#"
   xmlns:cc="http://creativecommons.org/ns#"
   xmlns:dc="http://purl.org/dc/elements/1.1/"><defs
     id="defs1" /><sodipodi:namedview
     id="base"
     pagecolor="#ffffff"
     bordercolor="#000000"
     borderopacity="1"
     inkscape:pageopacity="0.0"
     inkscape:pageshadow="2"
     inkscape:zoom="0.25"
     inkscape:cx="254"
     inkscape:cy="396"
     inkscape:document-units="mm"
     inkscape:showpageshadow="false"
     inkscape:pagecheckerboard="true"
     inkscape:deskcolor="#e8e8e8"
     showborder="false"
     borderlayer="false"
     inkscape:window-width="1920"
     inkscape:window-height="1028"
     inkscape:window-x="1913"
     inkscape:window-y="-6"
     inkscape:window-maximized="1"
     inkscape:current-layer="svg1"
     showgrid="false" /><metadata
     id="metadata1"><rdf:RDF><cc:Work
         rdf:about=""><dc:format>image/svg+xml</dc:format><dc:type
           rdf:resource="http://purl.org/dc/dcmitype/StillImage" /></cc:Work></rdf:RDF></metadata><path
     style="fill:#cccccc;fill-opacity:1;stroke:none;stroke-width:0.2201px;stroke-linecap:butt;stroke-linejoin:miter;stroke-opacity:0"
     d="m 54.726356,85.894776 12.993245,7.48888 13.19263,-7.48888 v -28.4314 l -13.31063,-6.97909 -13.060085,6.773825 z"
     id="path20"
     sodipodi:nodetypes="ccccccc" /><path
     style="fill:#cccccc;fill-opacity:1;stroke:none;stroke-width:0.2201px;stroke-linecap:butt;stroke-linejoin:miter;stroke-opacity:1"
     d="m 102.78402,55.873326 3.30007,-1.592415 -38.526739,-19.051466 -0.04425,4.724083 z"
     id="path21"
     sodipodi:nodetypes="ccccc" /><path
     style="fill:#cccccc;fill-opacity:1;stroke:none;stroke-width:0.2201px;stroke-linecap:butt;stroke-linejoin:miter;stroke-opacity:1"
     d="m 32.988846,55.829216 c -1.405428,0.0088 -3.690295,-1.548305 -3.690295,-1.548305 l 38.30305,-19.025808 1e-5,4.756156 c 0,0 -29.253267,15.784282 -34.612765,15.817957 z"
     id="path21-1"
     sodipodi:nodetypes="scccs" /><path
     style="display:inline;fill:#ececec;stroke-width:0.828644"
     d="M 120.12633,92.314016 V 43.887778 L 67.744431,17.401905 19.318524,42.926925 19.349384,47.664549 67.601566,23.573598 116.3502,47.664549 V 89.028036 L 67.601591,112.84758 36.472866,97.347776 c 0,0 -1.647729,-1.62648 -5.537021,-2.337585 -4.580894,-0.837565 -11.495906,-0.714425 -11.166015,0.31728 0.609977,1.90764 47.831761,22.769509 47.831761,22.769509 z m -58.813004,-3.09299 -6.586975,-3.32625 -0.113335,-10.41986 -7.635457,-3.75859 0.332417,19.01587 13.962685,7.05427 h 0.06342 0.06342 z m 27.424415,1.65856 v -19.05477 l -7.825515,3.6501 v 10.41986 l -7.10805,3.32625 0.06529,9.03394 z m 17.346349,-8.73351 c -0.15521,-9.15345 -0.18066,-18.713705 0,-27.865165 l -3.30007,1.592415 -35.182424,-16.660369 -31.256039,15.067954 31.491479,16.3396 31.61318,-16.3396 -0.008,31.272945 z m -54.752169,-29.18029 16.269675,-8.072764 16.41605,8.213874 -16.41605,8.276655 z"
     id="path19"
     sodipodi:nodetypes="ccccccccccsscccccccccccccccccccccccccccccccc" /><path
     style="display:inline;fill:#000000;stroke-width:0.831876"
     d="M 0,101.89649 V 33.867657 L 67.601601,0 135.46667,33.867657 V 101.89649 L 67.601601,135.46667 Z M 123.90244,95.599981 V 40.111006 L 67.601601,12.105295 11.336991,40.111006 v 55.488975 c 18.550973,9.291139 38.14104,18.609849 56.26461,27.746419 z m -87.55688,1.78062 v -43.09969 l 31.256041,16.355235 31.84064,-16.355235 v 31.272945 l 6.641849,-3.40778 V 54.280911 L 67.601601,35.255103 29.298549,54.280911 l -0.02952,18.55024 c -5.605107,0.153945 -1.958935,6.18989 -9.919599,6.383235 V 47.664549 L 67.601576,23.573598 116.35021,47.664549 V 89.028036 L 67.601601,112.84758 Z M 46.808218,71.824816 v 19.05477 l 14.670943,7.37538 v -19.09422 z m 41.929528,19.05477 v -19.05477 l -14.868295,7.33593 v 19.09422 z m -37.35362,-37.86362 16.217475,-8.122944 16.41605,8.213874 -11.29506,5.59508 -5.12099,-2.578285 -4.94236,2.709085 z"
     id="path15"
     sodipodi:nodetypes="cccccccccccccccccccccccccccccccccccccccccccccccc" /></svg>
